<mxfile host="app.diagrams.net" modified="2023-10-24T08:45:20.044Z" agent="Mozilla/5.0 (Macintosh; Intel Mac OS X 10_15_7) AppleWebKit/537.36 (KHTML, like Gecko) Chrome/105.0.0.0 Safari/537.36" etag="tqTWRYAOJRvXkN-3AAf-" version="22.0.6" type="github">
  <diagram name="第 1 页" id="NlN-oaV5e4OJ7JgvH1-I">
    <mxGraphModel dx="1434" dy="796" grid="1" gridSize="10" guides="1" tooltips="1" connect="1" arrows="1" fold="1" page="1" pageScale="1" pageWidth="827" pageHeight="1169" math="0" shadow="0">
      <root>
        <mxCell id="0" />
        <mxCell id="1" parent="0" />
        <mxCell id="zJNFZbpcUzYXw6sJoN---1" value="点击保存" style="rounded=0;whiteSpace=wrap;html=1;fillColor=#b1ddf0;strokeColor=#10739e;" parent="1" vertex="1">
          <mxGeometry x="110" y="160" width="90" height="40" as="geometry" />
        </mxCell>
        <mxCell id="zJNFZbpcUzYXw6sJoN---2" value="" style="endArrow=classic;html=1;rounded=0;exitX=0.5;exitY=1;exitDx=0;exitDy=0;endFill=1;entryX=0;entryY=0.5;entryDx=0;entryDy=0;strokeWidth=3;" parent="1" source="zJNFZbpcUzYXw6sJoN---1" target="zJNFZbpcUzYXw6sJoN---3" edge="1">
          <mxGeometry width="50" height="50" relative="1" as="geometry">
            <mxPoint x="150" y="230" as="sourcePoint" />
            <mxPoint x="240" y="240" as="targetPoint" />
            <Array as="points">
              <mxPoint x="155" y="240" />
            </Array>
          </mxGeometry>
        </mxCell>
        <mxCell id="zJNFZbpcUzYXw6sJoN---3" value="初始化框架" style="rounded=0;whiteSpace=wrap;html=1;fontSize=18;fillColor=#bac8d3;strokeColor=#23445d;" parent="1" vertex="1">
          <mxGeometry x="220" y="220" width="360" height="40" as="geometry" />
        </mxCell>
        <mxCell id="zJNFZbpcUzYXw6sJoN---5" value="发现情报" style="rounded=0;whiteSpace=wrap;html=1;fontSize=18;fillColor=#bac8d3;strokeColor=#23445d;" parent="1" vertex="1">
          <mxGeometry x="677" y="220" width="250" height="40" as="geometry" />
        </mxCell>
        <mxCell id="zJNFZbpcUzYXw6sJoN---7" value="" style="endArrow=open;dashed=1;html=1;rounded=0;startArrow=none;startFill=0;endFill=0;strokeColor=#CC0000;strokeWidth=5;" parent="1" source="zJNFZbpcUzYXw6sJoN---8" edge="1">
          <mxGeometry width="50" height="50" relative="1" as="geometry">
            <mxPoint x="70" y="410" as="sourcePoint" />
            <mxPoint x="1320" y="410" as="targetPoint" />
          </mxGeometry>
        </mxCell>
        <mxCell id="zJNFZbpcUzYXw6sJoN---9" value="" style="endArrow=none;dashed=1;html=1;rounded=0;" parent="1" target="zJNFZbpcUzYXw6sJoN---8" edge="1">
          <mxGeometry width="50" height="50" relative="1" as="geometry">
            <mxPoint x="57" y="410" as="sourcePoint" />
            <mxPoint x="1017" y="410" as="targetPoint" />
          </mxGeometry>
        </mxCell>
        <mxCell id="zJNFZbpcUzYXw6sJoN---8" value="主流程" style="text;html=1;strokeColor=none;fillColor=none;align=center;verticalAlign=middle;whiteSpace=wrap;rounded=0;spacing=5;fontSize=18;" parent="1" vertex="1">
          <mxGeometry x="57" y="390" width="80" height="40" as="geometry" />
        </mxCell>
        <mxCell id="zJNFZbpcUzYXw6sJoN---10" value="" style="shape=offPageConnector;whiteSpace=wrap;html=1;direction=south;rotation=-180;fillColor=#f8cecc;strokeColor=#b85450;gradientColor=#ea6b66;" parent="1" vertex="1">
          <mxGeometry x="240" y="380" width="120" height="60" as="geometry" />
        </mxCell>
        <mxCell id="zJNFZbpcUzYXw6sJoN---13" value="注册&lt;br&gt;生命周期" style="text;html=1;align=center;verticalAlign=middle;whiteSpace=wrap;rounded=0;" parent="1" vertex="1">
          <mxGeometry x="240" y="395" width="90" height="30" as="geometry" />
        </mxCell>
        <mxCell id="zJNFZbpcUzYXw6sJoN---14" value="" style="shape=offPageConnector;whiteSpace=wrap;html=1;direction=south;rotation=-180;fillColor=#f8cecc;strokeColor=#b85450;gradientColor=#ea6b66;" parent="1" vertex="1">
          <mxGeometry x="360" y="380" width="120" height="60" as="geometry" />
        </mxCell>
        <mxCell id="zJNFZbpcUzYXw6sJoN---15" value="注册情报类型" style="text;html=1;align=center;verticalAlign=middle;whiteSpace=wrap;rounded=0;" parent="1" vertex="1">
          <mxGeometry x="360" y="395" width="90" height="30" as="geometry" />
        </mxCell>
        <mxCell id="zJNFZbpcUzYXw6sJoN---16" value="" style="shape=offPageConnector;whiteSpace=wrap;html=1;direction=south;rotation=-180;fillColor=#f8cecc;strokeColor=#b85450;gradientColor=#ea6b66;" parent="1" vertex="1">
          <mxGeometry x="478" y="380" width="106" height="60" as="geometry" />
        </mxCell>
        <mxCell id="zJNFZbpcUzYXw6sJoN---17" value="注册被动维护" style="text;html=1;align=center;verticalAlign=middle;whiteSpace=wrap;rounded=0;" parent="1" vertex="1">
          <mxGeometry x="490" y="395" width="84" height="30" as="geometry" />
        </mxCell>
        <mxCell id="zJNFZbpcUzYXw6sJoN---18" value="" style="shape=offPageConnector;whiteSpace=wrap;html=1;direction=south;rotation=-180;fillColor=#f8cecc;strokeColor=#b85450;gradientColor=#ea6b66;" parent="1" vertex="1">
          <mxGeometry x="685" y="380" width="236" height="60" as="geometry" />
        </mxCell>
        <mxCell id="zJNFZbpcUzYXw6sJoN---19" value="根据情报类型&lt;br&gt;在变更中查找维护情报" style="text;html=1;align=center;verticalAlign=middle;whiteSpace=wrap;rounded=0;" parent="1" vertex="1">
          <mxGeometry x="685" y="392.5" width="182" height="35" as="geometry" />
        </mxCell>
        <mxCell id="HYtRDiBU0j2kTiGEmcES-20" style="edgeStyle=orthogonalEdgeStyle;rounded=0;orthogonalLoop=1;jettySize=auto;html=1;exitX=1;exitY=0.5;exitDx=0;exitDy=0;entryX=0;entryY=0.5;entryDx=0;entryDy=0;" edge="1" parent="1" source="zJNFZbpcUzYXw6sJoN---26" target="zJNFZbpcUzYXw6sJoN---5">
          <mxGeometry relative="1" as="geometry">
            <Array as="points">
              <mxPoint x="1240" y="240" />
              <mxPoint x="1240" y="170" />
              <mxPoint x="640" y="170" />
              <mxPoint x="640" y="240" />
            </Array>
          </mxGeometry>
        </mxCell>
        <mxCell id="zJNFZbpcUzYXw6sJoN---26" value="执行被动维护" style="rounded=0;whiteSpace=wrap;html=1;fontSize=18;fillColor=#bac8d3;strokeColor=#23445d;" parent="1" vertex="1">
          <mxGeometry x="993" y="220" width="209" height="40" as="geometry" />
        </mxCell>
        <mxCell id="zJNFZbpcUzYXw6sJoN---27" value="" style="shape=offPageConnector;whiteSpace=wrap;html=1;direction=south;rotation=-180;fillColor=#f8cecc;strokeColor=#b85450;gradientColor=#ea6b66;" parent="1" vertex="1">
          <mxGeometry x="1013" y="380" width="172" height="60" as="geometry" />
        </mxCell>
        <mxCell id="zJNFZbpcUzYXw6sJoN---28" value="维护逻辑执行" style="text;html=1;align=center;verticalAlign=middle;whiteSpace=wrap;rounded=0;" parent="1" vertex="1">
          <mxGeometry x="1013" y="392.5" width="159" height="35" as="geometry" />
        </mxCell>
        <mxCell id="zJNFZbpcUzYXw6sJoN---50" value="" style="endArrow=none;dashed=1;html=1;rounded=0;strokeWidth=2;" parent="1" edge="1">
          <mxGeometry width="50" height="50" relative="1" as="geometry">
            <mxPoint x="210" y="560" as="sourcePoint" />
            <mxPoint x="210" y="270" as="targetPoint" />
          </mxGeometry>
        </mxCell>
        <mxCell id="zJNFZbpcUzYXw6sJoN---51" value="4009ms" style="text;html=1;strokeColor=none;fillColor=none;align=center;verticalAlign=middle;whiteSpace=wrap;rounded=0;" parent="1" vertex="1">
          <mxGeometry x="180" y="567.5" width="60" height="30" as="geometry" />
        </mxCell>
        <mxCell id="zJNFZbpcUzYXw6sJoN---53" value="&lt;div style=&quot;text-align: center;&quot;&gt;&lt;span style=&quot;background-color: initial;&quot;&gt;下一组变更 / 下一种情报&lt;/span&gt;&lt;/div&gt;" style="text;whiteSpace=wrap;html=1;" parent="1" vertex="1">
          <mxGeometry x="900" y="140" width="170" height="40" as="geometry" />
        </mxCell>
        <mxCell id="zJNFZbpcUzYXw6sJoN---54" value="" style="endArrow=none;dashed=1;html=1;rounded=0;strokeWidth=2;" parent="1" edge="1">
          <mxGeometry width="50" height="50" relative="1" as="geometry">
            <mxPoint x="600" y="560" as="sourcePoint" />
            <mxPoint x="600" y="220" as="targetPoint" />
          </mxGeometry>
        </mxCell>
        <mxCell id="zJNFZbpcUzYXw6sJoN---55" value="" style="endArrow=none;dashed=1;html=1;rounded=0;strokeWidth=2;" parent="1" edge="1">
          <mxGeometry width="50" height="50" relative="1" as="geometry">
            <mxPoint x="972" y="560" as="sourcePoint" />
            <mxPoint x="972" y="220" as="targetPoint" />
          </mxGeometry>
        </mxCell>
        <mxCell id="zJNFZbpcUzYXw6sJoN---57" value="&lt;span style=&quot;color: rgb(0, 0, 0); font-family: Helvetica; font-size: 12px; font-style: normal; font-variant-ligatures: normal; font-variant-caps: normal; font-weight: 400; letter-spacing: normal; orphans: 2; text-align: center; text-indent: 0px; text-transform: none; widows: 2; word-spacing: 0px; -webkit-text-stroke-width: 0px; background-color: rgb(251, 251, 251); text-decoration-thickness: initial; text-decoration-style: initial; text-decoration-color: initial; float: none; display: inline !important;&quot;&gt;4017ms&lt;/span&gt;" style="text;whiteSpace=wrap;html=1;" parent="1" vertex="1">
          <mxGeometry x="560" y="567.5" width="80" height="40" as="geometry" />
        </mxCell>
        <mxCell id="zJNFZbpcUzYXw6sJoN---59" value="&lt;span style=&quot;color: rgb(0, 0, 0); font-family: Helvetica; font-size: 12px; font-style: normal; font-variant-ligatures: normal; font-variant-caps: normal; font-weight: 400; letter-spacing: normal; orphans: 2; text-align: center; text-indent: 0px; text-transform: none; widows: 2; word-spacing: 0px; -webkit-text-stroke-width: 0px; background-color: rgb(251, 251, 251); text-decoration-thickness: initial; text-decoration-style: initial; text-decoration-color: initial; float: none; display: inline !important;&quot;&gt;12836ms&lt;/span&gt;" style="text;whiteSpace=wrap;html=1;" parent="1" vertex="1">
          <mxGeometry x="1210" y="567.5" width="80" height="40" as="geometry" />
        </mxCell>
        <mxCell id="zJNFZbpcUzYXw6sJoN---62" value="" style="endArrow=none;dashed=1;html=1;rounded=0;strokeWidth=2;" parent="1" edge="1">
          <mxGeometry width="50" height="50" relative="1" as="geometry">
            <mxPoint x="1260" y="560" as="sourcePoint" />
            <mxPoint x="1260" y="220" as="targetPoint" />
          </mxGeometry>
        </mxCell>
        <mxCell id="zJNFZbpcUzYXw6sJoN---76" value="6.1ms" style="text;html=1;align=center;verticalAlign=middle;whiteSpace=wrap;rounded=0;fontColor=#FF3333;" parent="1" vertex="1">
          <mxGeometry x="375" y="270" width="60" height="30" as="geometry" />
        </mxCell>
        <mxCell id="zJNFZbpcUzYXw6sJoN---77" value="①" style="text;strokeColor=none;fillColor=none;html=1;fontSize=24;fontStyle=1;verticalAlign=middle;align=center;" parent="1" vertex="1">
          <mxGeometry x="970" y="220" width="100" height="40" as="geometry" />
        </mxCell>
        <mxCell id="zJNFZbpcUzYXw6sJoN---79" value="①被动维护耗时长&lt;br&gt;②情报创建耗时长&lt;br&gt;③埋点上报可以聚合" style="text;strokeColor=none;fillColor=none;html=1;fontSize=24;fontStyle=1;verticalAlign=middle;align=left;labelPosition=center;verticalLabelPosition=middle;" parent="1" vertex="1">
          <mxGeometry x="810" y="607.5" width="333" height="130" as="geometry" />
        </mxCell>
        <mxCell id="zJNFZbpcUzYXw6sJoN---80" value="②" style="text;strokeColor=none;fillColor=none;html=1;fontSize=24;fontStyle=1;verticalAlign=middle;align=center;" parent="1" vertex="1">
          <mxGeometry x="670" y="220" width="100" height="40" as="geometry" />
        </mxCell>
        <mxCell id="HYtRDiBU0j2kTiGEmcES-1" value="" style="shape=offPageConnector;whiteSpace=wrap;html=1;direction=south;rotation=-180;fillColor=#fad7ac;strokeColor=#b46504;" vertex="1" parent="1">
          <mxGeometry x="685" y="460" width="176" height="60" as="geometry" />
        </mxCell>
        <mxCell id="HYtRDiBU0j2kTiGEmcES-2" value="plan、search、attach、judge、bailout" style="text;html=1;strokeColor=none;fillColor=none;align=center;verticalAlign=middle;whiteSpace=wrap;rounded=0;" vertex="1" parent="1">
          <mxGeometry x="685" y="472.5" width="152" height="35" as="geometry" />
        </mxCell>
        <mxCell id="HYtRDiBU0j2kTiGEmcES-9" value="" style="shape=offPageConnector;whiteSpace=wrap;html=1;direction=south;rotation=-180;fillColor=#fad7ac;strokeColor=#b46504;" vertex="1" parent="1">
          <mxGeometry x="1013" y="460" width="77" height="60" as="geometry" />
        </mxCell>
        <mxCell id="HYtRDiBU0j2kTiGEmcES-10" value="维护逻辑" style="text;html=1;strokeColor=none;fillColor=none;align=center;verticalAlign=middle;whiteSpace=wrap;rounded=0;" vertex="1" parent="1">
          <mxGeometry x="1013" y="472.5" width="69" height="35" as="geometry" />
        </mxCell>
        <mxCell id="HYtRDiBU0j2kTiGEmcES-11" value="" style="shape=offPageConnector;whiteSpace=wrap;html=1;direction=south;rotation=-180;fillColor=#fad7ac;strokeColor=#b46504;" vertex="1" parent="1">
          <mxGeometry x="1090" y="520" width="77" height="60" as="geometry" />
        </mxCell>
        <mxCell id="HYtRDiBU0j2kTiGEmcES-12" value="埋点上报&lt;br&gt;单次耗时" style="text;html=1;strokeColor=none;fillColor=none;align=center;verticalAlign=middle;whiteSpace=wrap;rounded=0;" vertex="1" parent="1">
          <mxGeometry x="1090" y="532.5" width="69" height="35" as="geometry" />
        </mxCell>
        <mxCell id="HYtRDiBU0j2kTiGEmcES-13" value="" style="endArrow=none;dashed=1;html=1;rounded=0;strokeWidth=2;" edge="1" parent="1">
          <mxGeometry width="50" height="50" relative="1" as="geometry">
            <mxPoint x="620" y="560" as="sourcePoint" />
            <mxPoint x="620" y="220" as="targetPoint" />
          </mxGeometry>
        </mxCell>
        <mxCell id="HYtRDiBU0j2kTiGEmcES-14" value="" style="endArrow=none;dashed=1;html=1;rounded=0;strokeWidth=2;" edge="1" parent="1">
          <mxGeometry width="50" height="50" relative="1" as="geometry">
            <mxPoint x="940" y="560" as="sourcePoint" />
            <mxPoint x="940" y="220" as="targetPoint" />
          </mxGeometry>
        </mxCell>
        <mxCell id="HYtRDiBU0j2kTiGEmcES-15" value="" style="endArrow=none;dashed=1;html=1;rounded=0;" edge="1" parent="1">
          <mxGeometry width="50" height="50" relative="1" as="geometry">
            <mxPoint x="610" y="597.5" as="sourcePoint" />
            <mxPoint x="610" y="407.5" as="targetPoint" />
          </mxGeometry>
        </mxCell>
        <mxCell id="HYtRDiBU0j2kTiGEmcES-16" value="3.3ms&lt;br&gt;onStart&lt;br&gt;统计耗时" style="text;html=1;align=center;verticalAlign=middle;whiteSpace=wrap;rounded=0;fontColor=#FF3333;" vertex="1" parent="1">
          <mxGeometry x="570" y="614" width="90" height="30" as="geometry" />
        </mxCell>
        <mxCell id="HYtRDiBU0j2kTiGEmcES-17" value="2.74ms&lt;br&gt;onComplete&lt;br&gt;埋点上报统计耗时、维护结果" style="text;html=1;align=center;verticalAlign=middle;whiteSpace=wrap;rounded=0;fontColor=#FF3333;" vertex="1" parent="1">
          <mxGeometry x="1190" y="607.5" width="178.5" height="40" as="geometry" />
        </mxCell>
        <mxCell id="HYtRDiBU0j2kTiGEmcES-18" value="" style="endArrow=none;dashed=1;html=1;rounded=0;" edge="1" parent="1">
          <mxGeometry width="50" height="50" relative="1" as="geometry">
            <mxPoint x="1277.5" y="600" as="sourcePoint" />
            <mxPoint x="1277.5" y="410" as="targetPoint" />
          </mxGeometry>
        </mxCell>
        <mxCell id="HYtRDiBU0j2kTiGEmcES-19" value="总计 2821.2 ms" style="text;html=1;align=center;verticalAlign=middle;whiteSpace=wrap;rounded=0;fontColor=#FF3333;" vertex="1" parent="1">
          <mxGeometry x="737" y="270" width="130" height="30" as="geometry" />
        </mxCell>
        <mxCell id="HYtRDiBU0j2kTiGEmcES-21" value="总计&amp;nbsp;5485.7 ms" style="text;html=1;align=center;verticalAlign=middle;whiteSpace=wrap;rounded=0;fontColor=#FF3333;" vertex="1" parent="1">
          <mxGeometry x="1037" y="270" width="130" height="30" as="geometry" />
        </mxCell>
        <mxCell id="HYtRDiBU0j2kTiGEmcES-22" value="③" style="text;strokeColor=none;fillColor=none;html=1;fontSize=24;fontStyle=1;verticalAlign=middle;align=center;" vertex="1" parent="1">
          <mxGeometry x="1067" y="585" width="100" height="40" as="geometry" />
        </mxCell>
      </root>
    </mxGraphModel>
  </diagram>
</mxfile>
